<svg width="36" height="63" viewBox="0 0 36 63" fill="none" xmlns="http://www.w3.org/2000/svg">
<path d="M31.1332 34C30.8207 33.0436 30.4088 32.1866 29.8974 31.429C29.3955 30.6619 28.7942 30.0085 28.0935 29.4688C27.4022 28.929 26.6162 28.517 25.7355 28.233C24.8548 27.9489 23.8889 27.8068 22.8378 27.8068C21.1143 27.8068 19.5471 28.2519 18.1361 29.142C16.7251 30.0322 15.6029 31.3438 14.7696 33.0767C13.9363 34.8097 13.5196 36.9356 13.5196 39.4545C13.5196 41.9735 13.941 44.0994 14.7838 45.8324C15.6266 47.5653 16.7677 48.8769 18.2071 49.767C19.6465 50.6572 21.2658 51.1023 23.065 51.1023C24.7317 51.1023 26.1995 50.7472 27.4685 50.0369C28.7469 49.3172 29.7412 48.304 30.4514 46.9972C31.1711 45.6809 31.531 44.1326 31.531 42.3523L32.6105 42.5795H23.8605V39.4545H34.94V42.5795C34.94 44.9754 34.4287 47.0587 33.406 48.8295C32.3927 50.6004 30.9912 51.9735 29.2014 52.9489C27.4211 53.9148 25.3757 54.3977 23.065 54.3977C20.4893 54.3977 18.226 53.7917 16.2753 52.5795C14.334 51.3674 12.8188 49.6439 11.7298 47.4091C10.6503 45.1742 10.1105 42.5227 10.1105 39.4545C10.1105 37.1534 10.4183 35.0843 11.0338 33.2472C11.6588 31.4006 12.5395 29.8286 13.6758 28.5312C14.8122 27.2339 16.1569 26.2396 17.7099 25.5483C19.263 24.857 20.9722 24.5114 22.8378 24.5114C24.3719 24.5114 25.8018 24.7434 27.1275 25.2074C28.4628 25.6619 29.6512 26.3106 30.6929 27.1534C31.744 27.9867 32.62 28.9858 33.3207 30.1506C34.0215 31.3059 34.5044 32.589 34.7696 34H31.1332Z" fill="black"/>
<path d="M4.71591 39H1.02273L11.7045 9.90909H15.3409L26.0227 39H22.3295L13.6364 14.5114H13.4091L4.71591 39ZM6.07955 27.6364H20.9659V30.7614H6.07955V27.6364Z" fill="black"/>
<path d="M15 10L4.5 38.5H1.5L11.5 10H15Z" fill="#D9D9D9"/>
<path d="M32 42.5H21L24 39.5H35L32 42.5Z" fill="#D9D9D9"/>
<path d="M15 10L4.5 38.5H1.5L11.5 10H15Z" stroke="black" stroke-linejoin="round"/>
<path d="M32 42.5H21L24 39.5H35L32 42.5Z" stroke="black" stroke-linejoin="round"/>
</svg>
